<?xml version="1.0" standalone="no"?><!DOCTYPE svg PUBLIC "-//W3C//DTD SVG 1.1//EN" "http://www.w3.org/Graphics/SVG/1.1/DTD/svg11.dtd"><svg t="1743748252448" class="icon" viewBox="0 0 1024 1024" version="1.1" xmlns="http://www.w3.org/2000/svg" p-id="2700" xmlns:xlink="http://www.w3.org/1999/xlink" width="200" height="200"><path d="M512 512m-512 0a512 512 0 1 0 1024 0 512 512 0 1 0-1024 0Z" fill="#3375A4" p-id="2701"></path><path d="M278.741333 370.176h108.8v361.728h-108.8z m54.698667-145.066667a54.869333 54.869333 0 1 0 56.405333 56.405334 56.405333 56.405333 0 0 0-56.405333-56.405334z m415.829333 192.853334a107.989333 107.989333 0 0 0-89.6-36.949334 119.808 119.808 0 0 0-107.136 60.885334h-1.706666v-71.722667h-91.392c1.706667 36.949333 0 361.728 0 361.728h108.842666v-224.853333a52.138667 52.138667 0 0 1 54.357334-41.728c35.242667 0 52.736 25.6 52.736 75.264v192h109.098666v-205.824a158.72 158.72 0 0 0-35.2-108.8z" fill="#FFFFFF" p-id="2702"></path></svg>