<?xml version="1.0" standalone="no"?><!DOCTYPE svg PUBLIC "-//W3C//DTD SVG 1.1//EN" "http://www.w3.org/Graphics/SVG/1.1/DTD/svg11.dtd"><svg t="1745592134868" class="icon" viewBox="0 0 1024 1024" version="1.1" xmlns="http://www.w3.org/2000/svg" p-id="9515" xmlns:xlink="http://www.w3.org/1999/xlink" width="200" height="200"><path d="M1003.52 868.352V155.648C1003.52 81.92 942.08 20.48 868.352 20.48H155.648C81.92 20.48 20.48 81.92 20.48 155.648v708.608c0 73.728 61.44 135.168 135.168 135.168h708.608c77.824 4.096 139.264-57.344 139.264-131.072zM479.232 126.976h356.352c20.48 0 40.96 20.48 40.96 40.96s-20.48 40.96-40.96 40.96h-356.352c-24.576 0-40.96-20.48-40.96-40.96s16.384-40.96 40.96-40.96z m-180.224 0c24.576 0 40.96 20.48 40.96 40.96s-16.384 40.96-40.96 40.96-40.96-20.48-40.96-40.96 16.384-40.96 40.96-40.96z m-114.688 0c24.576 0 40.96 20.48 40.96 40.96s-16.384 40.96-40.96 40.96c-20.48 0-40.96-20.48-40.96-40.96s16.384-40.96 40.96-40.96z m737.28 741.376c0 28.672-24.576 53.248-53.248 53.248H155.648c-28.672 0-53.248-24.576-53.248-53.248V352.256c0-28.672 24.576-53.248 53.248-53.248h708.608c28.672 0 53.248 24.576 53.248 53.248v516.096z" p-id="9516" fill="#f85d49"></path><path d="M667.648 454.656c-49.152-32.768-110.592-28.672-155.648 8.192-24.576-20.48-53.248-28.672-81.92-28.672-36.864 0-69.632 12.288-94.208 36.864-53.248 53.248-53.248 135.168 0 188.416l139.264 139.264c8.192 8.192 20.48 16.384 36.864 16.384 12.288 0 24.576-4.096 36.864-16.384l139.264-139.264c28.672-28.672 40.96-65.536 36.864-106.496 0-40.96-24.576-77.824-57.344-98.304z" p-id="9517" fill="#f85d49"></path></svg>